<svg xmlns="http://www.w3.org/2000/svg" viewBox="0 0 512 512" role="img" aria-label="ProKicks Play icon">
  <rect width="512" height="512" rx="112" fill="#173B63"/>
  <circle cx="256" cy="256" r="158" fill="#F8FAFC"/>
  <path d="M256 111l78 57-30 92h-96l-30-92 78-57z" fill="#173B63"/>
  <path d="M171 185l-48 74 35 86 84-9-34-76-37-75zM341 185l48 74-35 86-84-9 34-76 37-75zM191 386l65 48 65-48-23-69h-84l-23 69z" fill="#173B63"/>
  <path d="M133 260l-21-41a160 160 0 000 74l21-33zM379 260l21-41a160 160 0 010 74l-21-33z" fill="#173B63"/>
  <path d="M256 198c34 0 62 27 62 61s-28 61-62 61-62-27-62-61 28-61 62-61z" fill="#F97316"/>
  <path d="M231 281h49c19 0 33-13 33-31 0-19-14-31-33-31h-80v122h31v-60zm0-28v-7h45c4 0 7 1 7 4s-3 3-7 3h-45z" fill="#F8FAFC"/>
</svg>
